<svg width="20" height="20" viewBox="0 0 20 20" fill="none" xmlns="http://www.w3.org/2000/svg">
<path d="M14.7812 19.8288C16.5289 19.8288 17.6843 19.3566 18.7086 18.2114C18.7892 18.1313 18.8594 18.0408 18.94 17.9603C19.5426 17.2874 19.8237 16.6244 19.8237 15.9918C19.8237 15.2684 19.402 14.5956 18.508 13.9724L15.5852 11.9436C14.6809 11.3208 13.6262 11.2506 12.7823 12.0841L12.0092 12.8577C11.7777 13.0887 11.5772 13.099 11.3462 12.958C10.8139 12.6164 9.71887 11.6624 8.9753 10.9193C8.19187 10.1457 7.42859 9.28213 7.03687 8.64913C6.8963 8.4177 6.91644 8.22699 7.14744 7.99599L7.91073 7.22241C8.75459 6.37899 8.6843 5.31399 8.06159 4.42041L6.02244 1.49756C5.40959 0.60313 4.73673 0.191272 4.0133 0.181415C3.38073 0.17113 2.71773 0.462558 2.04487 1.06513C1.95444 1.1457 1.87387 1.21599 1.78344 1.28627C0.648586 2.31056 0.1763 3.46599 0.1763 5.20342C0.1763 8.07656 1.94416 11.572 5.18887 14.8163C8.41302 18.0408 11.9187 19.8288 14.7812 19.8288ZM14.7914 18.2817C12.2299 18.3318 8.94573 16.3634 6.34387 13.7718C3.7223 11.1601 1.66301 7.76499 1.71316 5.20384C1.7333 4.09856 2.11516 3.14456 2.90887 2.46142C2.96887 2.40142 3.02887 2.35084 3.09916 2.3007C3.39059 2.03927 3.7223 1.89913 4.00344 1.89913C4.30473 1.89913 4.56573 2.00927 4.75687 2.31056L6.70559 5.23342C6.91644 5.54499 6.93659 5.89684 6.62501 6.20799L5.7413 7.09213C5.03801 7.78513 5.09844 8.62899 5.60073 9.30184C6.17287 10.0754 7.16759 11.2004 7.93087 11.9637C8.70444 12.7373 9.91944 13.822 10.693 14.4044C11.3659 14.9067 12.22 14.9573 12.913 14.2638L13.7967 13.3801C14.1083 13.0686 14.4499 13.0887 14.761 13.2897L17.6839 15.2384C17.9856 15.439 18.106 15.6901 18.106 15.9918C18.106 16.2833 17.9654 16.6047 17.6946 16.9056C17.6474 16.9717 17.5971 17.0355 17.5437 17.0967C16.8507 17.8801 15.8963 18.2616 14.7914 18.2817Z" fill="#F6941E"/>
</svg>
